<?xml version="1.0" encoding="utf-8"?>
<!-- Generator: Adobe Illustrator 16.0.0, SVG Export Plug-In . SVG Version: 6.00 Build 0)  -->
<!DOCTYPE svg PUBLIC "-//W3C//DTD SVG 1.1//EN" "http://www.w3.org/Graphics/SVG/1.1/DTD/svg11.dtd">
<svg version="1.1" xmlns="http://www.w3.org/2000/svg" xmlns:xlink="http://www.w3.org/1999/xlink" x="0px" y="0px" width="50px"
	 height="50px" viewBox="0 0 50 50" enable-background="new 0 0 50 50" xml:space="preserve">
<g id="Layer_2">
</g>
<g id="Layer_1">
	<g>
		<path fill="none" stroke="#545454" stroke-width="1.0781" stroke-linejoin="round" stroke-miterlimit="10" d="M34.171,9.952
			c0.973,0,1.944,0.371,2.686,1.111l4.429,4.43c1.483,1.482,1.483,3.886,0.003,5.367L22.541,39.607
			c-0.814,0.814-1.847,1.378-2.971,1.622l-7.181,1.557c-0.168,0.037-0.334,0.054-0.497,0.054c-1.407,0-2.541-1.304-2.242-2.762
			l1.49-7.295c0.231-1.125,0.789-2.162,1.602-2.974l18.746-18.746C32.229,10.322,33.199,9.952,34.171,9.952"/>
	</g>
	
		<line fill="none" stroke="#545454" stroke-width="1.0604" stroke-linejoin="round" stroke-miterlimit="10" x1="22.578" y1="40.014" x2="12.472" y2="29.907"/>
	
		<line fill="none" stroke="#545454" stroke-width="1.0781" stroke-linejoin="round" stroke-miterlimit="10" x1="39.294" y1="23.3" x2="28.846" y2="12.853"/>
	<path fill="none" stroke="#545454" stroke-width="1.0781" stroke-linejoin="round" stroke-miterlimit="10" d="M12.39,42.786
		l3.24-0.702l-5.306-5.307L9.65,40.078C9.318,41.705,10.767,43.139,12.39,42.786z"/>
	
		<line fill="none" stroke="#545454" stroke-width="1.0966" stroke-linejoin="round" stroke-miterlimit="10" x1="17.457" y1="34.893" x2="33.841" y2="18.507"/>
	
		<line fill="none" stroke="#E0E0E0" stroke-width="1.2937" stroke-linecap="round" stroke-linejoin="round" stroke-miterlimit="10" x1="21.278" y1="24.92" x2="27.821" y2="18.446"/>
	
		<path fill="none" stroke="#E0E0E0" stroke-width="1.2937" stroke-linecap="round" stroke-linejoin="round" stroke-miterlimit="10" d="
		M33.676,12.766c0.301-0.219,0.791-0.413,1.403-0.06"/>
</g>
</svg>
