<?xml version="1.0" encoding="utf-8"?>
<!-- Generator: Adobe Illustrator 16.0.0, SVG Export Plug-In . SVG Version: 6.00 Build 0)  -->
<!DOCTYPE svg PUBLIC "-//W3C//DTD SVG 1.1//EN" "http://www.w3.org/Graphics/SVG/1.1/DTD/svg11.dtd">
<svg version="1.1" xmlns="http://www.w3.org/2000/svg" xmlns:xlink="http://www.w3.org/1999/xlink" x="0px" y="0px" width="50px"
	 height="50px" viewBox="0 0 50 50" enable-background="new 0 0 50 50" xml:space="preserve">
<g id="Layer_2">
</g>
<g id="Layer_1">
	<path fill="none" stroke="#545454" stroke-width="1.1599" stroke-linejoin="round" stroke-miterlimit="10" d="M32.391,18.616
		c1.582,0,3.167,0.604,4.374,1.81c2.415,2.417,2.415,6.333,0,8.749l-3.616,3.605l-5.152,5.133c-0.396,0.396-0.917,0.593-1.436,0.593
		c-0.521,0-1.04-0.197-1.438-0.593l-8.766-8.738c-2.415-2.416-2.414-6.332,0-8.749c1.207-1.206,2.79-1.81,4.375-1.81
		c1.581,0,3.164,0.604,4.371,1.81l0.739,0.737c0.199,0.198,0.459,0.297,0.719,0.297s0.519-0.099,0.718-0.297l0.738-0.737
		C29.226,19.218,30.809,18.616,32.391,18.616"/>
	
		<path fill="none" stroke="#E0E0E0" stroke-width="1.3919" stroke-linecap="round" stroke-linejoin="round" stroke-miterlimit="10" d="
		M36.163,25.819c-0.066-1.298-0.67-2.562-1.743-3.397c-0.992-0.771-2.19-1.021-3.298-0.8"/>
	<g>
		<g>
			
				<line fill="none" stroke="#E0E0E0" stroke-width="1.3919" stroke-linecap="round" stroke-linejoin="round" stroke-miterlimit="10" x1="10.028" y1="42.689" x2="14.547" y2="38.172"/>
			
				<line fill="none" stroke="#E0E0E0" stroke-width="1.3919" stroke-linecap="round" stroke-linejoin="round" stroke-miterlimit="10" x1="3.402" y1="26.691" x2="9.792" y2="26.691"/>
			
				<line fill="none" stroke="#E0E0E0" stroke-width="1.3919" stroke-linecap="round" stroke-linejoin="round" stroke-miterlimit="10" x1="10.028" y1="10.693" x2="14.547" y2="15.211"/>
			
				<line fill="none" stroke="#E0E0E0" stroke-width="1.3919" stroke-linecap="round" stroke-linejoin="round" stroke-miterlimit="10" x1="26.026" y1="7.261" x2="26.027" y2="13.65"/>
			
				<line fill="none" stroke="#E0E0E0" stroke-width="1.3919" stroke-linecap="round" stroke-linejoin="round" stroke-miterlimit="10" x1="42.025" y1="10.693" x2="37.509" y2="15.211"/>
			
				<line fill="none" stroke="#E0E0E0" stroke-width="1.3919" stroke-linecap="round" stroke-linejoin="round" stroke-miterlimit="10" x1="48.651" y1="26.691" x2="42.264" y2="26.691"/>
			
				<line fill="none" stroke="#E0E0E0" stroke-width="1.3919" stroke-linecap="round" stroke-linejoin="round" stroke-miterlimit="10" x1="42.025" y1="42.689" x2="37.509" y2="38.172"/>
		</g>
	</g>
</g>
</svg>
