<?xml version="1.0" encoding="utf-8"?>
<!-- Generator: Adobe Illustrator 16.0.0, SVG Export Plug-In . SVG Version: 6.00 Build 0)  -->
<!DOCTYPE svg PUBLIC "-//W3C//DTD SVG 1.1//EN" "http://www.w3.org/Graphics/SVG/1.1/DTD/svg11.dtd">
<svg version="1.1" xmlns="http://www.w3.org/2000/svg" xmlns:xlink="http://www.w3.org/1999/xlink" x="0px" y="0px" width="50px"
	 height="50px" viewBox="0 0 50 50" enable-background="new 0 0 50 50" xml:space="preserve">
<g id="Layer_2">
</g>
<g id="Layer_1">
	<path fill="none" stroke="#545454" stroke-width="1.0781" stroke-linejoin="round" stroke-miterlimit="10" d="M33.403,37.026
		l1.726,2.986c0.445,0.769-0.111,1.731-1.001,1.731H23.146c-0.887,0-1.443-0.962-1.001-1.731l1.635-2.83"/>
	<g>
		<path fill="none" stroke="#545454" stroke-width="0.8952" stroke-linejoin="round" stroke-miterlimit="10" d="M43.481,8.676
			H13.796c-2.783,0-5.045,2.263-5.045,5.045v18.417c0,2.781,2.262,5.044,5.045,5.044h29.686c2.781,0,5.044-2.264,5.044-5.044V13.721
			C48.525,10.938,46.263,8.676,43.481,8.676L43.481,8.676z"/>
	</g>
	<path fill="none" stroke="#545454" stroke-width="1.0781" stroke-linejoin="round" stroke-miterlimit="10" d="M45.528,30.288
		c0,0.736-0.535,1.333-1.196,1.333H12.944c-0.663,0-1.198-0.598-1.198-1.333V13.267c0-0.735,0.535-1.332,1.198-1.332h31.388
		c0.661,0,1.196,0.597,1.196,1.332V30.288z"/>
	<g>
		
			<line fill="none" stroke="#E0E0E0" stroke-width="1.2937" stroke-linecap="round" stroke-linejoin="round" stroke-miterlimit="10" x1="21.6" y1="23.475" x2="27.062" y2="18.014"/>
		
			<line fill="none" stroke="#E0E0E0" stroke-width="1.2937" stroke-linecap="round" stroke-linejoin="round" stroke-miterlimit="10" x1="30.216" y1="26.092" x2="35.676" y2="20.63"/>
		
			<line fill="none" stroke="#E0E0E0" stroke-width="1.2937" stroke-linecap="round" stroke-linejoin="round" stroke-miterlimit="10" x1="24.648" y1="26.092" x2="32.725" y2="18.014"/>
	</g>
	<g>
		<g>
			<g>
				<path fill="#FFFFFF" stroke="#545454" stroke-width="0.9841" stroke-miterlimit="10" d="M15.271,22.255H4.885
					c-1.881,0-3.409,1.492-3.409,3.325v14.502c0,1.834,1.528,3.325,3.409,3.325h10.386c1.881,0,3.41-1.491,3.41-3.325V25.58
					C18.681,23.747,17.151,22.255,15.271,22.255L15.271,22.255z"/>
			</g>
			<path fill="none" stroke="#545454" stroke-width="1.0781" stroke-linejoin="round" stroke-miterlimit="10" d="M16.169,38.394
				c0,0.444-0.36,0.804-0.803,0.804H4.791c-0.444,0-0.805-0.36-0.805-0.804V25.507c0-0.444,0.36-0.803,0.805-0.803h10.575
				c0.442,0,0.803,0.359,0.803,0.803V38.394z"/>
			<circle fill="none" stroke="#545454" stroke-width="0.5" stroke-miterlimit="10" cx="10.078" cy="41.544" r="0.891"/>
		</g>
		
			<line fill="none" stroke="#E0E0E0" stroke-width="1.2937" stroke-linecap="round" stroke-linejoin="round" stroke-miterlimit="10" x1="6.399" y1="31.125" x2="10.146" y2="27.375"/>
		
			<line fill="none" stroke="#E0E0E0" stroke-width="1.2937" stroke-linecap="round" stroke-linejoin="round" stroke-miterlimit="10" x1="10.081" y1="36.611" x2="13.83" y2="32.862"/>
		
			<line fill="none" stroke="#E0E0E0" stroke-width="1.2937" stroke-linecap="round" stroke-linejoin="round" stroke-miterlimit="10" x1="7.306" y1="34.64" x2="12.85" y2="29.095"/>
	</g>
</g>
</svg>
